<svg xmlns="http://www.w3.org/2000/svg" viewBox="0 0 64 64">
    <style>.st2{fill:#c75c5c}.st3{fill:#e0995e}.st4{fill:#4f5d73}.st5{fill:#f5cf87}</style>
    <circle fill="#76C2AF" cx="32" cy="32" r="32"/>
    <path style="opacity:.2" fill="#231F20"
          d="m45.3 51.5 5.2-5.2c.9-.9.6-2.5-.6-3.7l-3.5-3.5-.7-.7-18.9-18.9-8.4-2.9-4.2-1.4 1.4 4.2 2.9 8.4 18.9 18.9.7.7 3.5 3.5c1.2 1.2 2.8 1.4 3.7.6z"/>
    <path class="st2"
          d="M37.4 44.3c-1.2-1.2-1.4-2.8-.6-3.7l5.2-5.2c.9-.9 2.5-.6 3.7.6l4.2 4.2c1.2 1.2 1.4 2.8.6 3.7l-5.2 5.2c-.9.9-2.5.6-3.7-.6l-4.2-4.2z"/>
    <path transform="rotate(134.999 35.568 27.97)" class="st3" d="M34.1 14.1H37v27.7h-2.9z"/>
    <path transform="rotate(134.999 31.743 30.38)" class="st3" d="M28.8 15.5h5.9v29.7h-5.9z"/>
    <path transform="rotate(134.999 29.333 34.204)" class="st3" d="M27.9 20.4h2.9v27.7h-2.9z"/>
    <path class="st4" d="m14.2 12.8 1.4 4.2 2.8-2.7z"/>
    <path class="st5" d="m26.8 17.1-8.4-2.8-2.8 2.7 2.9 8.5 1-1.1 2.5.4-.7-4.9 4.9.7-.4-2.4z"/>
    <path d="M49.9 16.1c-1.9-1.9-13 6-19.9 12.9-3.4 3.4-5.1 5.8-5.7 7.7-2.1-.2-4.4.6-5.9 2.1-1 1-1.5 2-1.9 3.2-.8 2.2-1.5 5-4.5 7 2.2 2.2 11 2.9 15.2-1.4.4-.4.8-1 1.1-1.5.7-1.3 1.1-2.9.9-4.4 1.9-.6 4.3-2.3 7.7-5.7 6.9-6.8 14.9-17.9 13-19.9z"
          style="opacity:.2;fill:#231f20"/>
    <path class="st5"
          d="M30 27c-6.8 6.8-6.8 9.9-4.9 11.9 1.9 1.9 5 2 11.9-4.9 6.8-6.8 14.8-17.9 12.9-19.9-2-1.9-13.1 6.1-19.9 12.9z"/>
    <path class="st2" d="M12 47c2.2 2.2 11 2.9 15.2-1.4.4-.4.8-1 1.1-1.5-6.6-.2-10.1-2.4-11.9-4.1-.7 2.2-1.4 5-4.4 7z"/>
    <path class="st4"
          d="M27.8 36.2c-2.4-2.4-6.9-1.9-9.4.5-1 1-1.5 2-1.9 3.2 1.7 1.7 5.1 6.9 11.9 4.1 1.4-2.4 1.3-5.8-.6-7.8z"/>
    <path class="st2" d="M16.5 40s4-.8 5.9 2.1c1.9 2.8 5.9 2 5.9 2L23.2 47 18 43.2 16.5 40z"/>
</svg>