<svg xmlns="http://www.w3.org/2000/svg" viewBox="0 0 64 64" style="enable-background:new 0 0 64 64"
     xml:space="preserve">
  <circle cx="32" cy="32" r="32" style="fill:#c75c5c"/>
  <g style="opacity:.2">
    <path
      d="M50.2 43.4c-2-1.5-8.4-4.2-8.4-4.2s-7 5.4-14-6C19.7 20 16 18 16 18s-4 4-4 8 4 10 4 22c0 1.1.9 2 2 2s2-.9 2-2V34s4 0 8 8 8 8 12 8 12-.2 12-1.7c0-1.7.4-3.3-1.8-4.9z"
      style="fill:#231f20"/>
  </g>
  <path fill="#fff"
        d="M16 16s-4 4-4 8 4 10 4 22h4V32s4 0 8 8 8 8 12 8 12-.2 12-1.7c0-1.7.4-3.3-1.8-4.9-2-1.5-8.4-4.2-8.4-4.2s-7 5.4-14-6C19.7 18 16 16 16 16z"/>
  <path fill="#fff" d="M20 46c0 1.1-.9 2-2 2s-2-.9-2-2 .9-2 2-2 2 .9 2 2z"/>
</svg>
