<svg xmlns="http://www.w3.org/2000/svg" viewBox="0 0 512 512">
    <circle style="fill:#006c70" cx="256" cy="256" r="256"/>
    <path style="fill:#023737"
          d="M297.443 508.644c98.602-16.053 178.293-88.416 204.971-183.02L340.701 163.911l-58.904 90.691-136.963-136.963-20.137 26.595 105.601 105.601-124.278 34.334 62.598 62.598-11.985 8.028 53.76 53.76-8.933 4.108 95.983 95.981z"/>
    <path style="fill:#ffc61b"
          d="M236.175 293.883 117.303 144.35c-6.165-8.78-4.037-20.89 4.751-27.05 8.788-6.158 20.909-4.034 27.074 4.746l87.047 171.837z"/>
    <path style="fill:#f4a200"
          d="M122.197 117.212c-.047.033-.097.057-.141.09-8.788 6.158-10.916 18.268-4.751 27.048l112.54 141.571-107.648-168.709z"/>
    <path style="fill:#e5bf1f"
          d="M256 397.789c-75.302 0-136.345-61.043-136.345-136.345h272.691c-.001 75.302-61.044 136.345-136.346 136.345z"/>
    <path style="fill:#ff9811"
          d="M254.852 261.444V397.76c.384.003.764.029 1.148.029 75.302 0 136.345-61.043 136.345-136.345H254.852z"/>
    <path style="fill:#ccf8f3"
          d="M129.895 268.467s-7.006-54.555 63.043-62.802c70.047-8.247 126.086-62.802 126.086-62.802s70.047 55.189 63.043 125.604H129.895z"/>
    <path style="fill:#1fdbe2"
          d="M319.023 142.865s-25.765 25.059-64.171 43.777v81.825h127.214c7.004-70.413-63.043-125.602-63.043-125.602z"/>
    <path style="fill:#ff9811" d="M106.02 256.896h299.96v27.269H106.02z"/>
    <path style="fill:#ff5023" d="M254.845 256.896H405.98v27.269H254.845z"/>
    <path style="fill:#ff9811" d="M201.456 385.396h109.072v27.269H201.456z"/>
    <path style="fill:#ff5023" d="M254.845 385.396h55.682v27.269h-55.682z"/>
</svg>