<svg xmlns="http://www.w3.org/2000/svg" viewBox="0 0 64 64">
    <circle cx="32" cy="32" r="32" style="fill:#76c2af"/>
    <path d="M32 39.8c9.2 0 9.5 3.1 13 6.1 3.5 3.1 10 4.1 10-6.1s-4.6-16.3-4.6-16.3S46 16 40 21.9c-4.3 4.2-11.7 4.2-16 0-6-5.9-10.4 1.6-10.4 1.6S9 29.6 9 39.8C9 50 15.6 49 19 45.9c3.5-3 3.8-6.1 13-6.1z"
          style="opacity:.2;fill:#231f20"/>
    <path d="M32 36.8c9.2 0 9.5 3.1 13 6.1 3.5 3.1 10 4.1 10-6.1s-4.6-16.3-4.6-16.3S46 13 40 18.9c-4.3 4.2-11.7 4.2-16 0-6-5.9-10.4 1.6-10.4 1.6S9 26.6 9 36.8C9 47 15.6 46 19 42.9c3.5-3 3.8-6.1 13-6.1z"
          style="fill:#4f5d73"/>
    <circle fill="#e0e0d1" cx="44" cy="34" r="2"/>
    <circle fill="#e0e0d1" cx="48" cy="29" r="2"/>
    <path fill="#e0e0d1" d="M19 35.5c0 .8-.7 1.5-1.5 1.5s-1.5-.7-1.5-1.5v-7c0-.8.7-1.5 1.5-1.5s1.5.7 1.5 1.5v7z"/>
    <path fill="#e0e0d1" d="M14 33.5c-.8 0-1.5-.7-1.5-1.5s.7-1.5 1.5-1.5h7c.8 0 1.5.7 1.5 1.5s-.7 1.5-1.5 1.5h-7z"/>
</svg>