<svg xmlns="http://www.w3.org/2000/svg" viewBox="0 0 508 508">
    <circle style="fill:#90dfaa" cx="254" cy="254" r="254"/>
    <path style="fill:#e6e9ee" d="M355.2 188.4v194.4c0 19.6 15.6 35.2 35.2 35.2s35.2-15.6 35.2-35.2V188.4h-70.4z"/>
    <path style="fill:#ced5e0"
          d="M395.6 417.6c-1.6.4-3.6.4-5.2.4-9.6 0-18.4-4-24.8-10.4s-10.4-15.2-10.4-24.8V188.4H366v194.4c0 9.6 4 18.4 10.4 24.8 4.8 5.2 11.6 8.8 19.2 10z"/>
    <path style="fill:#fff"
          d="M355.2 382.8V99.2H110v283.2c0 19.6 15.6 35.2 35.2 35.2H390c-19.2.4-34.8-15.6-34.8-34.8z"/>
    <path style="fill:#ff7058"
          d="M131.2 158.4c0-2 1.6-3.6 3.6-3.6 4.8 0 5.6-4.8 5.6-5.6V122c0-2 1.6-3.6 3.6-3.6s3.6 1.6 3.6 3.6v27.2c0 .4 0 3.2-1.6 6-2 4.4-6 6.4-11.2 6.4-1.6.8-3.6-1.2-3.6-3.2zM152.8 140.4c0-12 9.2-22 20.8-22s21.2 10 21.2 22-9.6 22-21.2 22-20.8-10-20.8-22zm7.2 0c0 8 6 14.4 13.6 14.4s13.6-6.4 13.6-14.4-6-14.4-13.6-14.4c-7.2-.4-13.6 6.4-13.6 14.4z"/>
    <path style="fill:#e6e9ee"
          d="M122 185.6h220.4v8.4H122zM122.8 211.2H226v8.4H122.8zM122.8 232.8H226v8.4H122.8zM122.8 254.8H226v8.4H122.8zM122.8 276.4H226v8.4H122.8zM122.8 298.4H226v8.4H122.8zM122.8 320H226v8.4H122.8zM122.8 342H226v8.4H122.8zM122.8 363.6H226v8.4H122.8zM122.8 385.6H226v8.4H122.8zM239.2 211.2h103.2v8.4H239.2zM239.2 232.8h103.2v8.4H239.2zM239.2 342h103.2v8.4H239.2zM239.2 363.6h103.2v8.4H239.2zM239.2 385.6h103.2v8.4H239.2z"/>
    <path style="fill:#84dbff" d="M239.2 254.8h103.2v74H239.2z"/>
    <path style="fill:#ff7058"
          d="M223.2 137.2c1.6-2 2.4-4.4 2.4-7.2 0-6.4-5.2-12-12-12h-10c-2 0-4 1.6-4 4v36c0 2 1.6 4 4 4h11.6c7.6 0 13.6-6 13.6-13.6 0-4.4-2-8.4-5.6-11.2zm-16-11.6h6c2.4 0 4.8 2 4.8 4.4s-2 4.8-4.8 4.8h-6v-9.2zm8 29.2h-8.4V142h8.4c3.6 0 6.4 2.8 6.4 6.4 0 3.6-2.8 6.4-6.4 6.4z"/>
</svg>