<svg xmlns="http://www.w3.org/2000/svg" viewBox="0 0 512 512">
    <circle style="fill:#ffd630" cx="256" cy="256" r="256"/>
    <path style="fill:#f5be18"
          d="M507.055 307.101C483.318 423.974 379.961 512 256.165 512c-24.232 0-47.804-3.297-70.058-9.726L67.42 383.588l12.033-18.627-5.769-3.956 73.19-32.639-32.804-32.804V276.77h80.938l-24.067-23.408 16.979-30.166-6.923-6.264 64.619-47.804 31.32 31.32 53.738-69.728 176.547 176.547-.166-.166z"/>
    <path style="fill:#e84f4f"
          d="M187.261 128.247H324.74c4.451 0 7.912 3.626 7.912 7.912v75.992c0 4.451-3.626 7.912-7.912 7.912H187.261c-4.451 0-7.912-3.626-7.912-7.912V136.16c-.001-4.451 3.626-7.913 7.912-7.913z"/>
    <path style="fill:#c94545"
          d="M330.509 130.555a7.85 7.85 0 0 1 2.308 5.604v75.992c0 4.451-3.626 7.912-7.912 7.912H187.426c-2.637 0-5.11-1.319-6.429-3.297l149.676-86.213h-.164v.002z"/>
    <path style="fill:#e6e6e6" d="M186.766 134.347h138.468v79.949H186.766v-79.949z"/>
    <path style="fill:#e84f4f"
          d="M178.69 223.196H333.312c1.978 0 13.682 17.144 15.66 19.616 1.319 1.483.494 2.637-1.483 2.637l-91.652-.165-91.652.165c-1.978 0-2.803-1.154-1.483-2.637 1.978-2.308 13.682-19.616 15.66-19.616h.328z"/>
    <path style="fill:#c94545"
          d="M170.777 253.528c-1.978 0-7.912-5.44-8.242-8.078l-.165-1.154h187.426l-.165 1.154c-.329 2.637-5.604 8.078-7.583 8.078-57.201.164-114.071.164-171.271 0z"/>
    <path style="fill:#ebecec" d="M241.329 236.549h31.486l2.637 6.594H238.692l2.637-6.594z"/>
    <path style="fill:#c94545" d="M214.13 220.229h10.055v2.967H214.13v-2.967zm73.85 0h10.055v2.967H287.98v-2.967z"/>
    <path style="fill:#e84f4f"
          d="M77.641 306.442h84.894c2.637 0 4.946 2.143 4.946 4.946v46.815c0 2.637-2.143 4.946-4.946 4.946H77.641c-2.637 0-4.946-2.143-4.946-4.946v-46.815c0-2.639 2.143-4.946 4.946-4.946z"/>
    <path style="fill:#c94545"
          d="M165.831 307.926c.824.824 1.483 2.143 1.483 3.461v46.815c0 2.637-2.143 4.946-4.946 4.946H77.476c-1.649 0-3.132-.824-3.957-2.143l92.312-53.244v.165z"/>
    <path style="fill:#e6e6e6" d="M77.311 310.233H162.7v49.288H77.311v-49.288z"/>
    <path style="fill:#e84f4f"
          d="M72.201 365.125h95.279c1.154 0 8.407 10.55 9.726 12.033.824.989.329 1.649-.989 1.649l-56.541-.165-56.541.165c-1.154 0-1.649-.66-.989-1.649 1.154-1.483 8.407-12.033 9.726-12.033h.329z"/>
    <path style="fill:#c94545"
          d="M67.42 383.753c-1.154 0-4.946-3.297-5.11-4.946l-.165-.66h115.554v.66c-.165 1.649-3.461 4.946-4.78 4.946-35.276.165-70.388.165-105.664 0h.165z"/>
    <path style="fill:#ebecec" d="M110.939 373.368h19.781l1.649 4.121H109.62l1.649-4.121h-.33z"/>
    <path style="fill:#c94545" d="M94.125 363.313h6.264v1.814h-6.264v-1.814zm45.497 0h6.264v1.814h-6.264v-1.814z"/>
    <path style="fill:#e84f4f"
          d="M213.635 306.442h84.894c2.637 0 4.946 2.143 4.946 4.946v46.815c0 2.637-2.143 4.946-4.946 4.946h-84.894c-2.637 0-4.946-2.143-4.946-4.946v-46.815c.002-2.639 2.145-4.946 4.946-4.946z"/>
    <path style="fill:#c94545"
          d="M301.991 307.926c.824.824 1.483 2.143 1.483 3.461v46.815c0 2.637-2.143 4.946-4.946 4.946h-84.894c-1.649 0-3.132-.824-3.956-2.143l92.312-53.244v.165z"/>
    <path style="fill:#e6e6e6" d="M213.306 310.233h85.388v49.288h-85.388v-49.288z"/>
    <path style="fill:#e84f4f"
          d="M208.36 365.125h95.279c1.154 0 8.407 10.55 9.726 12.033.824.989.329 1.649-.989 1.649l-56.541-.165-56.541.165c-1.154 0-1.649-.66-.989-1.649 1.154-1.483 8.407-12.033 9.726-12.033h.329z"/>
    <path style="fill:#c94545"
          d="M203.416 383.753c-1.154 0-4.946-3.297-5.11-4.946l-.165-.66h115.554v.66c-.165 1.649-3.461 4.946-4.78 4.946-35.276.165-70.388.165-105.664 0h.165z"/>
    <path style="fill:#ebecec" d="M246.934 373.368h19.781l1.649 4.121H245.615l1.649-4.121h-.33z"/>
    <path style="fill:#c94545" d="M230.12 363.313h6.264v1.814h-6.264v-1.814zm45.496 0h6.264v1.814h-6.264v-1.814z"/>
    <path style="fill:#e84f4f"
          d="M349.631 306.442h84.894c2.637 0 4.946 2.143 4.946 4.946v46.815c0 2.637-2.143 4.946-4.946 4.946h-84.894c-2.637 0-4.946-2.143-4.946-4.946v-46.815c0-2.639 2.143-4.946 4.946-4.946z"/>
    <path style="fill:#c94545"
          d="M437.986 307.926c.824.824 1.483 2.143 1.483 3.461v46.815c0 2.637-2.143 4.946-4.946 4.946H349.63c-1.649 0-3.132-.824-3.957-2.143l92.312-53.244v.165h.001z"/>
    <path style="fill:#e6e6e6" d="M349.466 310.233h85.388v49.288h-85.388v-49.288z"/>
    <path style="fill:#e84f4f"
          d="M344.356 365.125H439.633c1.154 0 8.407 10.55 9.726 12.033.824.989.329 1.649-.989 1.649l-56.541-.165-56.541.165c-1.154 0-1.649-.66-.989-1.649 1.154-1.483 8.407-12.033 9.726-12.033h.331z"/>
    <path style="fill:#c94545"
          d="M339.41 383.753c-1.154 0-4.946-3.297-5.11-4.946l-.165-.66h115.554v.66c-.165 1.649-3.461 4.946-4.78 4.946-35.276.165-70.388.165-105.664 0h.165z"/>
    <path style="fill:#ebecec" d="M382.929 373.368h19.781l1.649 4.121h-22.747l1.649-4.121h-.332z"/>
    <path style="fill:#c94545" d="M366.279 363.313h6.264v1.814h-6.264v-1.814zm45.497 0h6.264v1.814h-6.264v-1.814z"/>
    <path style="fill:#fff"
          d="M258.472 263.912v12.858h139.622v18.792h-7.253v-11.374H258.472v12.858h-7.253v-12.858H121.16v11.374h-7.253V276.77h137.314v-12.858h7.251z"/>
</svg>