<svg xmlns="http://www.w3.org/2000/svg" viewBox="0 0 512.001 512.001">
    <circle style="fill:#394ce2" cx="255.997" cy="255.996" r="255.996"/>
    <path style="fill:#1b2ddd"
          d="M512.001 255.999c0-2.744-.059-5.474-.144-8.198L339.034 75.527c-3.561-5.211-9.546-8.651-16.298-8.651H189.264c-10.851 0-19.729 8.878-19.729 19.729v37.069l7.399 5.219v23.483H108.64c-17.859 0-32.471 14.612-32.471 32.471v194.971c0 10.252 4.82 19.426 12.3 25.389l96.926 96.926c22.427 6.422 46.113 9.867 70.604 9.867 141.386 0 256.002-114.615 256.002-256.001z"/>
    <path style="fill:#fff" d="M176.931 113.098h23.913v41.309h-23.913z"/>
    <path style="fill:#e1e1e3" d="M311.156 113.098h23.913v41.309h-23.913z"/>
    <path style="fill:#ffa91f"
          d="M322.737 66.876H189.264c-10.851 0-19.729 8.878-19.729 19.729v37.069h38.711v-21.152h95.51v21.153h38.711V86.606c-.001-10.852-8.879-19.73-19.73-19.73z"/>
    <path style="fill:#f80"
          d="M303.755 102.523v21.153h38.711v-37.07c0-10.851-8.878-19.729-19.729-19.729h-66.74v35.646h47.758z"/>
    <path style="fill:#ffa91f"
          d="M403.361 412.289H108.64c-17.859 0-32.471-14.612-32.471-32.471V184.847c0-17.858 14.612-32.471 32.471-32.471h294.722c17.858 0 32.471 14.612 32.471 32.471v194.971c-.001 17.859-14.613 32.471-32.472 32.471z"/>
    <path style="fill:#f80"
          d="M403.361 152.377H255.997v259.911h147.364c17.858 0 32.471-14.612 32.471-32.47v-194.97c0-17.859-14.612-32.471-32.471-32.471z"/>
    <path style="fill:#fff" d="M123.38 152.375h27.858V412.29H123.38z"/>
    <path style="fill:#e1e1e3" d="M360.767 152.375h27.858V412.29h-27.858z"/>
    <path transform="scale(-1) rotate(-23.884 -1126.186 949.63)" style="fill:#fff"
          d="M175.976 205.588h49.753v65.213h-49.753z"/>
    <path transform="scale(-1) rotate(-23.884 -1126.18 949.646)" style="fill:#ff3c62"
          d="M182.088 212.055h37.535v52.277h-37.535z"/>
    <path transform="rotate(-150.657 306.485 350.979)" style="fill:#e1e1e3" d="M281.608 318.37h49.75v65.21h-49.75z"/>
    <path transform="rotate(-150.657 306.483 350.99)" style="fill:#008c49" d="M287.714 324.848h37.532v52.274h-37.532z"/>
</svg>