<svg xmlns="http://www.w3.org/2000/svg" viewBox="0 0 512 512">
    <circle fill="#d9ecc6" cx="256" cy="256" r="256"/>
    <path fill="#2c9984" d="M120.673 132.725h270.653v135.327H120.673z"/>
    <path fill="#1e826f" d="M255.379 132.725H391.33v135.327H255.379z"/>
    <path fill="#90dfaa" d="M130.517 141.338h250.966v118.105H130.517z"/>
    <path fill="#6fc688" d="M255.379 141.338h126.104v118.105H255.379z"/>
    <ellipse fill="#2c9984" cx="256" cy="200.387" rx="27.065" ry="40.598"/>
    <path fill="#1e826f"
          d="M256 159.791c-.21 0-.415.017-.624.024v81.148c.209.007.415.024.624.024 14.948 0 27.065-18.177 27.065-40.598S270.948 159.791 256 159.791z"/>
    <path fill="#2c9984" d="M120.673 163.668h270.653v135.327H120.673z"/>
    <path fill="#1e826f" d="M255.379 163.668H391.33v135.327H255.379z"/>
    <path fill="#90dfaa" d="M130.517 172.287h250.966v118.105H130.517z"/>
    <path fill="#6fc688" d="M255.379 172.287h126.104v118.105H255.379z"/>
    <ellipse fill="#2c9984" cx="256" cy="231.331" rx="27.065" ry="40.598"/>
    <path fill="#1e826f"
          d="M256 190.735c-.21 0-.415.017-.624.024v81.148c.209.007.415.024.624.024 14.948 0 27.065-18.177 27.065-40.598 0-22.423-12.117-40.598-27.065-40.598z"/>
    <path fill="#2c9984" d="M120.673 194.612h270.653v135.327H120.673z"/>
    <path fill="#1e826f" d="M255.379 194.612H391.33v135.327H255.379z"/>
    <path fill="#90dfaa" d="M130.517 203.231h250.966v118.105H130.517z"/>
    <path fill="#6fc688" d="M255.379 203.231h126.104v118.105H255.379z"/>
    <ellipse fill="#2c9984" cx="256" cy="262.275" rx="27.065" ry="40.598"/>
    <path fill="#1e826f"
          d="M256 221.677c-.21 0-.415.017-.624.024v81.148c.209.007.415.024.624.024 14.948 0 27.065-18.177 27.065-40.598S270.948 221.677 256 221.677z"/>
    <path fill="#2c9984" d="M120.673 232.624h270.653v135.327H120.673z"/>
    <path fill="#1e826f" d="M255.379 232.624H391.33v135.327H255.379z"/>
    <path fill="#90dfaa" d="M130.517 241.243h250.966v118.105H130.517z"/>
    <path fill="#6fc688" d="M255.379 241.243h126.104v118.105H255.379z"/>
    <ellipse fill="#2c9984" cx="256" cy="300.287" rx="27.065" ry="40.598"/>
    <path fill="#1e826f"
          d="M256 259.687c-.21 0-.415.017-.624.024v81.148c.209.007.415.024.624.024 14.948 0 27.065-18.177 27.065-40.598S270.948 259.687 256 259.687z"/>
</svg>