<svg xmlns="http://www.w3.org/2000/svg" viewBox="0 0 512 512">
    <path style="fill:#f63341" d="M502.388 186.283C472.029 78.782 373.217 0 256 0 114.616 0 0 114.616 0 256c0 117.217 78.782 216.029 186.283 246.388l316.105-316.105z"/>
    <path style="fill:#c92b31"
          d="M512 256c0-24.168-3.354-47.551-9.612-69.717l-88.336-88.336L97.948 414.052l88.336 88.336C208.447 508.647 231.832 512 256 512c141.384 0 256-114.616 256-256z"/>
    <path style="fill:#b1eae5" d="M256 97.948 228.174 256 256 414.052h158.052V97.948z"/>
    <path style="fill:#d8f4f2" d="M97.948 97.948H256v316.104H97.948z"/>
    <path style="fill:#d8f4f2" d="M391.791 120.209H256L211.478 256 256 391.791h135.791z"/>
    <path style="fill:#fff" d="M120.209 120.209H256v271.583H120.209z"/>
    <circle style="fill:#889391" cx="358.4" cy="256" r="11.13"/>
    <path style="fill:#f63341" d="M278.261 233.739v-45.635H256L244.87 256 256 323.896h22.261v-45.635h45.635v-44.522z"/>
    <path style="fill:#f85c67" d="M233.739 188.104v45.635h-45.635v44.522h45.635v45.635H256V188.104z"/>
    <path style="fill:#c3c9c8" d="m131.339 175.861-11.13 11.13-11.131-11.13V142.47h22.261z"/>
    <path style="fill:#b0b7b6" d="M109.078 175.861h22.261v33.391h-22.261z"/>
    <path style="fill:#c3c9c8" d="m131.339 336.139-11.13 11.131-11.131-11.131v-33.391h22.261z"/>
    <path style="fill:#b0b7b6" d="M109.078 336.139h22.261v33.391h-22.261z"/>
</svg>