<svg xmlns="http://www.w3.org/2000/svg" viewBox="0 0 496.157 496.157">
    <path style="fill:#a3d5e0" d="M248.077 0C111.072 0 0 111.063 0 248.083c0 137.004 111.071 248.074 248.076 248.074 137.012 0 248.081-111.07 248.081-248.074C496.158 111.063 385.088 0 248.077 0z"/>
    <path style="fill:#e5aa17"
          d="M248.079 97.743S96.213 223.746 96.213 236.591v120.816c0 12.845 10.412 23.265 23.262 23.265h81.613v-72.129c0-16.777 13.599-30.372 30.374-30.372h34.167c16.771 0 30.374 13.595 30.374 30.372v72.129h83.215c12.845 0 23.259-10.42 23.259-23.265V236.592c-.001-12.846-154.398-138.849-154.398-138.849z"/>
    <path style="fill:#c69422"
          d="M436.402 229.347 259.496 76.509c-6.683-5.772-16.773-5.038-22.544 1.641-5.771 6.687-5.034 16.778 1.648 22.546l176.905 152.837c6.682 5.769 16.772 5.03 22.541-1.648 5.772-6.683 5.036-16.77-1.644-22.538z"/>
    <path style="fill:#c69422"
          d="M261.795 78.149c-5.769-6.679-15.857-7.413-22.538-1.641L62.346 229.347c-6.68 5.769-7.416 15.856-1.646 22.539 5.769 6.679 15.859 7.417 22.54 1.648l176.909-152.837c6.682-5.77 7.419-15.86 1.646-22.548z"/>
</svg>