<svg xmlns="http://www.w3.org/2000/svg" viewBox="0 0 460 460">
    <path style="fill:#ffae46" d="M444.903 147.918C411.849 61.431 328.105 0 230 0 102.975 0 0 102.974 0 230c0 98.105 61.431 181.849 147.918 214.903l296.985-296.985z"/>
    <path style="fill:#fe843f"
          d="M460 230c0-28.92-5.353-56.586-15.097-82.082l-66.41-66.41L81.508 378.492l66.411 66.411C173.414 454.647 201.08 460 230 460c127.026 0 230-102.975 230-230z"/>
    <path style="fill:#db3916"
          d="M378.493 81.507c-26.641-7.243-53.755-10.476-80.347-9.641l-44.217 5.284c-42.902 9.071-82.78 29.578-114.99 61.788-33.004 33.004-53.722 74.06-62.438 118.17l-4.634 41.038c-.835 26.591 2.398 53.706 9.641 80.346l155.563-141.421L378.493 81.507z"/>
    <path style="fill:#6e1d0b"
          d="M378.493 81.508c7.243 26.641 10.476 53.755 9.641 80.347l-5.284 44.217c-9.071 42.902-29.578 82.78-61.788 114.99-33.004 33.004-74.06 53.721-118.17 62.438l-41.038 4.634c-26.591.835-53.706-2.398-80.346-9.641L378.493 81.508z"/>
    <path style="fill:#fff"
          d="M318.389 141.612 253.93 77.153c14.455-3.056 29.253-4.811 44.217-5.281l44.991 44.991-5.303 19.445-19.446 5.304zM141.612 318.388l-64.459-64.459c-3.056 14.455-4.811 29.253-5.281 44.217l44.991 44.991 19.445-5.303 5.304-19.446zM280.219 179.781l-21.213-21.213-14.142 14.142 14.142 14.142L230 215.858l-14.142-14.142-14.142 14.142L215.858 230l-29.005 29.005-14.143-14.142-14.142 14.142 21.214 21.214 14.144-.003 86.291-86.29z"/>
    <path style="fill:#fff2d4"
          d="m318.389 141.612 64.459 64.459c3.056-14.455 4.811-29.253 5.281-44.217l-44.991-44.991-24.749 24.749z"/>
    <path transform="rotate(134.999 197.457 283.755)" style="fill:#fff2d4" d="M187.456 268.754h20v30h-20z"/>
    <path transform="rotate(134.999 240.606 240.607)" style="fill:#fff2d4" d="M230.604 225.607h20v30h-20z"/>
    <path transform="rotate(134.999 283.753 197.46)" style="fill:#fff2d4" d="M273.751 182.46h20v30h-20z"/>
    <path style="fill:#fff2d4"
          d="m141.612 318.388 64.459 64.459c-14.455 3.056-29.253 4.811-44.217 5.281l-44.991-44.991 24.749-24.749z"/>
</svg>