<svg xmlns="http://www.w3.org/2000/svg" viewBox="0 0 64 64">
  <circle fill="#4f5d73" cx="32" cy="32" r="32"/>
  <g style="opacity:0.2">
    <path fill="#231f20"
          d="M50 33.1c-2.2 0-4-1.8-4-4 0-.4.1-.7.1-1H21.9c.1.3.1.7.1 1 0 2.2-1.8 4-4 4-.3 0-.7-.1-1-.1v8.2c.3-.1.7-.1 1-.1 2.2 0 4 1.8 4 4 0 .3-.1.7-.1 1h24.2c-.1-.3-.1-.7-.1-1 0-2.2 1.8-4 4-4 .4 0 .7.1 1 .1V33c-.3 0-.7.1-1 .1zM34 43c-3.3 0-6-2.7-6-6s2.7-6 6-6 6 2.7 6 6-2.7 6-6 6z"/>
    <path fill="#231f20"
          d="M50 25H18c-.3 0-.5 0-.8.1-1.8.4-3.2 2-3.2 3.9V44.9c0 2.2 1.8 4 4 4H49.9c2 0 3.6-1.4 3.9-3.2.2-.2.2-.4.2-.7V29c0-2.2-1.8-4-4-4zm0 16c-2.2 0-4 1.8-4 4 0 .3.1.7.1 1H21.9c.1-.3.1-.7.1-1 0-2.2-1.8-4-4-4-.3 0-.7.1-1 .1v-8.2c.3.1.7.1 1 .1 2.2 0 4-1.8 4-4 0-.4-.1-.7-.1-1h24.2c-.1.3-.1.7-.1 1 0 2.2 1.8 4 4 4 .4 0 .7-.1 1-.1v8.2c-.3-.1-.7-.1-1-.1z"/>
    <circle fill="#231f20" cx="34" cy="37" r="6"/>
  </g>
  <path fill="#76c2af" d="M18 46c-1.7 0-3-1.3-3-3V27c0-1.7 1.3-3 3-3h32c1.7 0 3 1.3 3 3v16c0 1.7-1.3 3-3 3H18z"/>
  <path fill="#e0e0d1"
        d="M50 25c1.1 0 2 .9 2 2v16c0 1.1-.9 2-2 2H18c-1.1 0-2-.9-2-2V27c0-1.1.9-2 2-2h32m0-2H18c-2.2 0-4 1.8-4 4v16c0 2.2 1.8 4 4 4h32c2.2 0 4-1.8 4-4V27c0-2.2-1.8-4-4-4z"/>
  <circle fill="#4f5d73" cx="34" cy="35" r="6"/>
  <circle fill="#e0e0d1" cx="50" cy="27" r="4"/>
  <circle fill="#e0e0d1" cx="18" cy="27" r="4"/>
  <circle fill="#e0e0d1" cx="50" cy="43" r="4"/>
  <circle fill="#e0e0d1" cx="18" cy="43" r="4"/>
  <g style="opacity:0.2">
    <path fill="#231f20"
          d="M48 29.1c-2.2 0-4-1.8-4-4 0-.4.1-.7.1-1H19.9c.1.3.1.7.1 1 0 2.2-1.8 4-4 4-.3 0-.7-.1-1-.1v8.2c.3-.1.7-.1 1-.1 2.2 0 4 1.8 4 4 0 .3-.1.7-.1 1h24.2c-.1-.3-.1-.7-.1-1 0-2.2 1.8-4 4-4 .4 0 .7.1 1 .1V29c-.3 0-.7.1-1 .1zM32 39c-3.3 0-6-2.7-6-6s2.7-6 6-6 6 2.7 6 6-2.7 6-6 6z"/>
    <path
      fill="#231f20"
      d="M48 21H16c-.3 0-.5 0-.8.1-1.8.4-3.2 2-3.2 3.9V40.9c0 2.2 1.8 4 4 4H47.9c2 0 3.6-1.4 3.9-3.2.2-.2.2-.4.2-.7V25c0-2.2-1.8-4-4-4zm0 16c-2.2 0-4 1.8-4 4 0 .3.1.7.1 1H19.9c.1-.3.1-.7.1-1 0-2.2-1.8-4-4-4-.3 0-.7.1-1 .1v-8.2c.3.1.7.1 1 .1 2.2 0 4-1.8 4-4 0-.4-.1-.7-.1-1h24.2c-.1.3-.1.7-.1 1 0 2.2 1.8 4 4 4 .4 0 .7-.1 1-.1v8.2c-.3-.1-.7-.1-1-.1z"/>
    <circle fill="#231f20" cx="32" cy="33" r="6"/>
  </g>
  <path fill="#76c2af" d="M14 42c-1.7 0-3-1.3-3-3V23c0-1.7 1.3-3 3-3h32c1.7 0 3 1.3 3 3v16c0 1.7-1.3 3-3 3H14z"/>
  <path fill="#e0e0d1"
        d="M46 21c1.1 0 2 .9 2 2v16c0 1.1-.9 2-2 2H14c-1.1 0-2-.9-2-2V23c0-1.1.9-2 2-2h32m0-2H14c-2.2 0-4 1.8-4 4v16c0 2.2 1.8 4 4 4h32c2.2 0 4-1.8 4-4V23c0-2.2-1.8-4-4-4z"/>
  <circle fill="#4f5d73" cx="30" cy="31" r="6"/>
  <circle fill="#e0e0d1" cx="46" cy="23" r="4"/>
  <circle fill="#e0e0d1" cx="14" cy="23" r="4"/>
  <circle fill="#e0e0d1" cx="46" cy="39" r="4"/>
  <circle fill="#e0e0d1" cx="14" cy="39" r="4"/>
</svg>
